# xmcd
#
# Track frame offsets:
#	150
#	22875
#	45600
#	71775
#	97725
#	129900
#	152025
#	180300
#	200400
#	223275
#
# Disc length: 3257 seconds
#
# Revision: 0
# Processed by: cddbd v1.5.1PL0 Copyright (c) Steve Scherf et al.
# Submitted via: EasyCDDAExtractor 8.1.4.1
#
DISCID=800cb70a
DTITLE=Various Artist - Tinh Ca 20 - Doi Bong
DYEAR=1996
DGENRE=
TTITLE0=Thien Trang - Doi bong
TTITLE1=Che Linh - Sau tim thiep hong
TTITLE2=Thien Trang - Thuong ve mien dat lanh
TTITLE3=Tuan Vu - Nguoi tinh va que huong
TTITLE4=Thien Trang - Neu hai dua minh
TTITLE5=Che Linh - Tam hon co don
TTITLE6=Thien Trang - Neu ai co hoi
TTITLE7=Tuan Vu - Nha anh nha em
TTITLE8=Thien Trang - Tuan Vu - Ngoai o buon
TTITLE9=Thien Trang - Han tinh
EXTD=
EXTT0=
EXTT1=
EXTT2=
EXTT3=
EXTT4=
EXTT5=
EXTT6=
EXTT7=
EXTT8=
EXTT9=
PLAYORDER=
